<svg id="Layer_1" data-name="Layer 1" xmlns="http://www.w3.org/2000/svg" xmlns:xlink="http://www.w3.org/1999/xlink" viewBox="0 0 485.14 411"><defs><style>.cls-1,.cls-8{fill:#25770c;}.cls-2{fill:#95dc00;}.cls-3{fill:url(#Áåçûìÿííûé_ãðàäèåíò_104);}.cls-4{fill:#fff;}.cls-5{fill:url(#Áåçûìÿííûé_ãðàäèåíò_104-2);}.cls-6{fill:url(#Áåçûìÿííûé_ãðàäèåíò_104-3);}.cls-7{fill:url(#Áåçûìÿííûé_ãðàäèåíò_104-4);}.cls-8{font-size:102.61px;font-family:BodoniBT-Bold, Bodoni Bd BT;font-weight:700;}</style><linearGradient id="Áåçûìÿííûé_ãðàäèåíò_104" x1="150.69" y1="202.7" x2="329.49" y2="202.7" gradientUnits="userSpaceOnUse"><stop offset="0" stop-color="#322d3a"/><stop offset="0.78" stop-color="#58505f"/><stop offset="1" stop-color="#433c4a"/></linearGradient><linearGradient id="Áåçûìÿííûé_ãðàäèåíò_104-2" x1="133.47" y1="282.69" x2="346.71" y2="282.69" xlink:href="#Áåçûìÿííûé_ãðàäèåíò_104"/><linearGradient id="Áåçûìÿííûé_ãðàäèåíò_104-3" x1="78.95" y1="254.49" x2="176.63" y2="254.49" xlink:href="#Áåçûìÿííûé_ãðàäèåíò_104"/><linearGradient id="Áåçûìÿííûé_ãðàäèåíò_104-4" x1="303.54" y1="254.49" x2="401.23" y2="254.49" xlink:href="#Áåçûìÿííûé_ãðàäèåíò_104"/></defs><circle class="cls-1" cx="240.09" cy="245.03" r="104.66"/><circle class="cls-2" cx="240.09" cy="245.03" r="89.4"/><path class="cls-3" d="M240.09,165.09a89.39,89.39,0,0,1,89.27,84.67c.08-1.57.13-3.14.13-4.73a89.4,89.4,0,0,0-178.8,0c0,1.59,0,3.16.12,4.73A89.4,89.4,0,0,1,240.09,165.09Z"/><path class="cls-4" d="M230.86,292.39s-49.58-4-57.82,17.55c1.86,9.43-7.7,35.15-18.2,41.16-4.25,11.71,15.28,25.69,15.28,25.69s9-12,16.75-11.56,9.17,1.46,9.3,2.52-2.33,6.45-.27,13.16,7.25,13.42,8.11,13.55,2.33.27,2.39-.19,1.07-10.84,1.07-10.84,3,4.39,4.62,5.12,9.19.73,9.19.73a22.15,22.15,0,0,0,2.47-2.66c.79-1.13.26-3.45,2.32-2.39a16.13,16.13,0,0,1,3.72,2.46c1.73,1.33,2.79,2.06,4.46,1.46,1.24-.45,4.36-2.13,5.84-2.94a65.25,65.25,0,0,0,5.84,2.94c1.66.6,2.73-.13,4.45-1.46a16.35,16.35,0,0,1,3.72-2.46c2.06-1.06,1.53,1.26,2.33,2.39a22.4,22.4,0,0,0,2.46,2.66s7.57,0,9.19-.73,4.63-5.12,4.63-5.12,1,10.37,1.06,10.84,1.53.33,2.4.19,6-6.84,8.1-13.55-.39-12.1-.26-13.16,1.59-2.13,9.3-2.52,16.75,11.56,16.75,11.56,19.53-14,15.28-25.69c-10.5-6-20.07-31.73-18.21-41.16-8.24-21.53-57.81-17.55-57.81-17.55Z"/><ellipse class="cls-4" cx="240.09" cy="357.78" rx="16.36" ry="5.18"/><path class="cls-4" d="M240.09,302.36c-8,.23-34.63,1.27-48.64,5.58-16.61,5.12-15.75,21.93-15.75,21.93s-5.53-11.49,0-18.94,25.06-13.1,25.06-13.1l28.71-5h21.26l28.7,5s19.54,5.66,25.06,13.1,0,18.94,0,18.94.86-16.81-15.75-21.93C274.72,303.63,248.09,302.59,240.09,302.36Z"/><path class="cls-4" d="M200.12,372a7.27,7.27,0,0,1,3-.17c-3.65,7-3.08,19.38,4.72,20.7-2.42-6.54.3-15.51.53-15.94a48.1,48.1,0,0,1,3.71-3.35s-.15,12.58,7.85,12.28,7.2-3.63,7.2-3.63.68-6.91,3.64-8.08-1.09,9.92,4.84,10.87,3.14,3-.25,3.49-7-1.77-7.6-2.1a3,3,0,0,0-3.27,1c-1.12,1.25-2.66,2.87-5.9,2.15s-8.48-3.92-8.48-3.92-2.21-.19-2.16.65,1.09,5.34.82,6.48,1.12,4.54-1.6,2.94-10.06-6.8-10.89-9.87a65.62,65.62,0,0,1-1.34-7Z"/><path class="cls-4" d="M280.05,372a7.22,7.22,0,0,0-2.95-.17c3.65,7,3.07,19.38-4.73,20.7,2.43-6.54-.29-15.51-.52-15.94s-3.71-3.35-3.71-3.35.14,12.58-7.86,12.28-7.2-3.63-7.2-3.63-.67-6.91-3.64-8.08,1.1,9.92-4.83,10.87-3.14,3,.25,3.49,7-1.77,7.6-2.1a3,3,0,0,1,3.26,1c1.13,1.25,2.67,2.87,5.91,2.15s8.47-3.92,8.47-3.92,2.22-.19,2.17.65-1.1,5.34-.82,6.48-1.12,4.54,1.59,2.94,10.07-6.8,10.89-9.87a64.12,64.12,0,0,0,1.35-7Z"/><path class="cls-4" d="M182.41,331s-7.27,16.75,13.91,20.53c-2.49-2.69-1.95-3.73-1.95-3.73s7.43,7.82,17.45,6.67c3.94-11,11.91-24.22,11.91-24.22s-15.2,9.77-16.2,9.67S194.47,328,194.47,328s-8.77-.4-9-.35A44.93,44.93,0,0,0,182.41,331Z"/><path class="cls-4" d="M297.76,331s7.28,16.75-13.9,20.53c2.49-2.69,1.94-3.73,1.94-3.73s-7.42,7.82-17.44,6.67c-3.94-11-11.91-24.22-11.91-24.22s15.2,9.77,16.19,9.67S285.7,328,285.7,328s8.77-.4,9-.35A44.93,44.93,0,0,1,297.76,331Z"/><path class="cls-4" d="M158.94,199.44l7.23,19s-7.28,12.16-15.21,3.79-12.21-21.63-12.21-21.78,4.44-7,4.44-7l4.34-2.09h4.29Z"/><path class="cls-4" d="M321.24,199.44l-7.23,19s7.28,12.16,15.2,3.79,12.21-21.63,12.21-21.78-4.43-7-4.43-7l-4.34-2.09h-4.29Z"/><path class="cls-4" d="M146.4,208.93s4.71-1.86,7.7-1.6S163.37,221,163.37,221l2.5-3.58s-5.72-12-6-12.43-1.91-1.93-1.95-2.13-8.62,1.07-8.62,1.07Z"/><path class="cls-4" d="M333.78,208.93s-4.72-1.86-7.71-1.6S316.81,221,316.81,221l-2.5-3.58s5.72-12,6-12.43,1.91-1.93,1.95-2.13,8.62,1.07,8.62,1.07Z"/><ellipse class="cls-4" cx="148.19" cy="200.18" rx="9.44" ry="8.86"/><ellipse class="cls-4" cx="331.99" cy="200.18" rx="9.44" ry="8.86"/><polygon class="cls-4" points="176.45 235.37 192.58 258.4 185.3 280.73 167.96 250.43 176.45 235.37"/><polygon class="cls-4" points="303.73 235.37 287.6 258.4 294.87 280.73 312.22 250.43 303.73 235.37"/><path class="cls-4" d="M170.3,253.57s.39-5,4.41-6,11.59,18.9,14.93,18.45-1.3-14.9-1.3-14.9l-11.71-15.45S168,248.93,170.3,253.57Z"/><path class="cls-4" d="M309.87,253.57s-.39-5-4.4-6-11.59,18.9-14.93,18.45,1.29-14.9,1.29-14.9l11.71-15.45S312.17,248.93,309.87,253.57Z"/><path class="cls-5" d="M232.05,216.9s-26.78,2.66-33.12,21.93-10.82,32.66-13.17,40.39-20.16,18.19-21.49,0c.4-15.4-4.25-12.48-4.25-12.48l-12.76,8.64s-16.88,6.91-13.29,31.77,9.17,39.87,15.68,41.06,16-1.59,19.16-10.5,2.19-25.78,6.27-30.56,30.65-14.36,46.2-14.62c7.54-.13,14.07-.1,18.81,0s11.27-.09,18.8,0c15.56.26,42.13,9.83,46.21,14.62s3.1,21.66,6.27,30.56,12.64,11.7,19.15,10.5,12.1-16.21,15.69-41.06-13.29-31.77-13.29-31.77l-12.76-8.64s-4.65-2.92-4.25,12.48c-1.33,18.19-19.14,7.72-21.49,0s-6.82-21.12-13.17-40.39-33.13-21.93-33.13-21.93Z"/><path class="cls-4" d="M240.09,273.14l-1.86,0c-11.17,0-20.23-1.61-20.23-3.59s9.06-3.58,20.23-3.58h3.71c11.18,0,20.24,1.6,20.24,3.58s-9.06,3.59-20.24,3.59Z"/><ellipse class="cls-4" cx="240.09" cy="233.95" rx="25.58" ry="17.04"/><path class="cls-4" d="M154.44,333.59S141,311.36,145.53,296a37.07,37.07,0,0,1,17-21.66s-.56-7.05-1.22-6.56c-.25.18-3,1.14-6.65,2.58l-7.44,5s-10.16,4.17-13,17.64c.8,13.15,5.54,32,7.58,36.32C144.73,335.59,154.44,333.59,154.44,333.59Z"/><path class="cls-4" d="M325.74,333.59s13.41-22.23,8.9-37.61a37,37,0,0,0-17-21.66s.56-7.05,1.23-6.56c.24.18,3,1.14,6.64,2.58l7.45,5s10.15,4.17,13,17.64c-.81,13.15-5.55,32-7.58,36.32C335.44,335.59,325.74,333.59,325.74,333.59Z"/><path class="cls-6" d="M176.63,233.65s-.8,17.54-15.55,20.33-24.32,3.06-28.84,12.36-13.42,26.32-27.91,30.17a37.17,37.17,0,0,1-25.38-2S94.23,279.64,98.09,261s9.56-39.08,17.54-43.33,20.86-9.1,25.92-5,24.72,22.76,22.82-1.55C170.85,219.73,176.63,233.65,176.63,233.65Z"/><path class="cls-7" d="M303.54,233.65s.8,17.54,15.55,20.33,24.33,3.06,28.85,12.36,13.42,26.32,27.91,30.17a37.17,37.17,0,0,0,25.38-2S386,279.64,382.09,261,372.52,222,364.55,217.7s-20.87-9.1-25.92-5-24.72,22.76-22.82-1.55C309.33,219.73,303.54,233.65,303.54,233.65Z"/><path class="cls-4" d="M127.79,214.52C115.43,216,108.25,231,108.25,231s-1.76,2.82-4.38,7.22A225.71,225.71,0,0,0,98.09,261c-2.53,12.17-9.93,22.74-14.76,28.6a2,2,0,0,0,.4.17c10.27,3.29,23.53-10.26,26.91-24.72S119,241,130.78,230.39,140.15,213.05,127.79,214.52Z"/><path class="cls-4" d="M352.39,214.52C364.75,216,371.92,231,371.92,231s1.77,2.82,4.39,7.22A231.17,231.17,0,0,1,382.09,261c2.52,12.17,9.93,22.74,14.75,28.6a1.71,1.71,0,0,1-.39.17c-10.27,3.29-23.53-10.26-26.92-24.72S361.16,241,349.4,230.39,340,213.05,352.39,214.52Z"/><path class="cls-1" d="M240.09,220.1c-7.13.49-37.54,4-40.53,28.24-3.13,25.39-5.66,40.93-23.28,42a1.14,1.14,0,0,1-.7-2.09c9.8-6.64,11.73-22.12,13.81-39.85,2.53-21.53,20.6-34,50.7-35.71,30.1,1.75,48.17,14.18,50.7,35.71,2.08,17.73,4,33.21,13.81,39.85a1.15,1.15,0,0,1-.71,2.09c-17.61-1.07-20.14-16.61-23.27-42C277.63,224.07,247.22,220.59,240.09,220.1Z"/><path class="cls-1" d="M240.09,287.76c-15.33-.43-58.19.34-72.07,21.07a1.08,1.08,0,0,0-.13.94c6.05,18.74-7.61,30.51-12.25,33.86a1.07,1.07,0,0,1-1.71-.77c-.19-2.19-.14-5.92,1.94-8.52a1.06,1.06,0,0,0-.17-1.47c-28.74-24.79-12.86-54.58,2.54-61.22a1.08,1.08,0,0,1,1.5,1.16c-2.19,13.49,4.2,16.63,7.77,17.34a1.08,1.08,0,0,0,1.18-1.56c-1.82-3.53-4.82-12.27.88-24.92a1.09,1.09,0,0,0-1.1-1.54c-31.44,3.42-57,33.07-26.53,79.44l6.21,8.47a1.06,1.06,0,0,1,.2.81c-.21,1.34-.8,5.4-.46,7a1.17,1.17,0,0,0,.1.26c9.65,18.5,19.08,24.23,21.91,25.61a1.06,1.06,0,0,0,1.35-.35c2.68-3.79,15.9-21.32,33.43-24.16a1.08,1.08,0,0,0-.11-2.15c-9.18-.58-25.06,2.5-34.7,14.74a1.08,1.08,0,0,1-1.61.09c-5.07-5.12-9.06-14.64-10.28-17.77a1.08,1.08,0,0,1,.6-1.39c4.54-1.86,23-11.23,18-39.28a1.07,1.07,0,0,1,.19-.83c10.38-13.9,50.08-15.64,63.32-15.83,13.24.19,52.94,1.93,63.32,15.83a1.07,1.07,0,0,1,.18.83c-5,28.05,13.46,37.42,18,39.28a1.09,1.09,0,0,1,.6,1.39c-1.23,3.13-5.21,12.65-10.28,17.77a1.08,1.08,0,0,1-1.61-.09c-9.64-12.24-25.52-15.32-34.71-14.74a1.08,1.08,0,0,0-.1,2.15c17.52,2.84,30.75,20.37,33.43,24.16a1.06,1.06,0,0,0,1.35.35c2.83-1.38,12.25-7.11,21.9-25.61a.85.85,0,0,0,.11-.26c.34-1.6-.25-5.66-.46-7A1.06,1.06,0,0,1,332,350l6.21-8.47c30.48-46.37,4.92-76-26.52-79.44a1.1,1.1,0,0,0-1.11,1.54c5.71,12.65,2.71,21.39.89,24.92a1.08,1.08,0,0,0,1.17,1.56c3.58-.71,10-3.85,7.77-17.34a1.09,1.09,0,0,1,1.51-1.16c15.39,6.64,31.28,36.43,2.53,61.22a1.07,1.07,0,0,0-.16,1.47c2.07,2.6,2.13,6.33,1.94,8.52a1.08,1.08,0,0,1-1.72.77c-4.64-3.35-18.29-15.12-12.25-33.86a1,1,0,0,0-.12-.94C298.28,288.1,255.42,287.33,240.09,287.76Z"/><path class="cls-1" d="M223.08,311.73s4.19,14.95,3.69,18.94c-17.24,13.56-18.44,20.43-18.44,20.43s-22.83-6.37-22.43-19.68a14.3,14.3,0,0,0,4,13.5c-9.07.3-9.27-13.55-8.27-16.64,7.07-9.47,4.68-15.65,4.68-15.65s6.81-1.9,11.6,2.62,4.95,18.41,14.27,18.51c11.41-3.54,8.87-8.12,8.87-8.12s-1.25,4.63-7.33,2.94C219,325,220.44,313,219.44,310,221.74,309.44,223.08,311.73,223.08,311.73Z"/><path class="cls-1" d="M257.09,311.73s-4.18,14.95-3.68,18.94c17.24,13.56,18.44,20.43,18.44,20.43s22.82-6.37,22.42-19.68a14.28,14.28,0,0,1-4,13.5c9.07.3,9.27-13.55,8.27-16.64-7.08-9.47-4.68-15.65-4.68-15.65s-6.82-1.9-11.6,2.62-4.95,18.41-14.27,18.51c-11.41-3.54-8.87-8.12-8.87-8.12s1.24,4.63,7.32,2.94C261.23,325,259.74,313,260.73,310,258.44,309.44,257.09,311.73,257.09,311.73Z"/><path class="cls-1" d="M238.85,327.18S227,331,222.28,345.92s8.23,18.54,15.06,14.6c-6.88-.1-9.87-2.89-9.87-2.89s8.3,2.16,12.62.59c4.32,1.57,12.62-.59,12.62-.59s-3,2.79-9.87,2.89c6.83,3.94,19.74.35,15-14.6s-16.57-18.74-16.57-18.74"/><path class="cls-1" d="M190.06,364.33c.79-.31,8.08-3.13,13.31-2.11a.83.83,0,0,1,.28,1.5c-4.2,2.79-5.76,4.88-6.33,6.14a.82.82,0,0,0,.91,1.13,18.94,18.94,0,0,1,2.45-.32.82.82,0,0,1,.6,1.42c-4.24,4.06-6.12,15.18,3.37,19.69a.83.83,0,0,0,1.17-.92c-1.35-5.61.65-13.95,2-16.3a.83.83,0,0,0-.26-1.11,6,6,0,0,0-.72-.41.82.82,0,0,1,.26-1.55,6.84,6.84,0,0,1,4.94,1.72.15.15,0,0,1,0,.2c-3.51,4.57-4.22,17.13-1.77,22.59a.82.82,0,0,1-.73,1.17c-10.57-.17-18.2-12.6-16.47-23.67a.74.74,0,0,0,0-.21c-.43-4.21-3.76-5-6.5-5a.82.82,0,0,1-.46-1.51l3.79-2.41Z"/><path class="cls-1" d="M290.12,364.33c-.8-.31-8.08-3.13-13.31-2.11a.83.83,0,0,0-.29,1.5c4.2,2.79,5.76,4.88,6.33,6.14A.82.82,0,0,1,282,371a18.88,18.88,0,0,0-2.46-.32.82.82,0,0,0-.6,1.42c4.25,4.06,6.12,15.18-3.37,19.69a.82.82,0,0,1-1.16-.92c1.35-5.61-.65-13.95-2-16.3a.83.83,0,0,1,.26-1.11,5.27,5.27,0,0,1,.72-.41.82.82,0,0,0-.27-1.55,6.81,6.81,0,0,0-4.93,1.72.14.14,0,0,0,0,.2c3.51,4.57,4.22,17.13,1.76,22.59a.82.82,0,0,0,.74,1.17c10.57-.17,18.19-12.6,16.47-23.67a1.48,1.48,0,0,1,0-.21c.43-4.21,3.77-5,6.51-5a.82.82,0,0,0,.46-1.51l-3.79-2.41Z"/><path class="cls-1" d="M240.09,386.93c-.11,0-.28,0-.29.14-.27,2.73-10,6.16-12.73.17a.36.36,0,0,0-.64,0c-1,1.61-3,4.48-8.93,4.53-6.38.07-9.33-6.38-9.66-7.12a.28.28,0,0,1,0-.18c.09-1,1-9.76,4.34-11.17-2,5.12.37,13.89,4.65,14.35s7.64-1.79,7.74-7.44c.07-3.53-1.47-5.4-2.63-6.3a.39.39,0,0,1,.28-.69,5.4,5.4,0,0,1,3.41,1.62.37.37,0,0,0,.52,0,7.25,7.25,0,0,1,5.32-1.86.38.38,0,0,1,.24.65,9.41,9.41,0,0,0-2.65,8.15c.8,5.71,6.78,4.61,8.44,3.15s3.39-8.92-.16-11.11a.39.39,0,0,1,.17-.71,4.43,4.43,0,0,1,2.43.35.39.39,0,0,0,.18,0,.33.33,0,0,0,.17,0,4.47,4.47,0,0,1,2.43-.35.39.39,0,0,1,.18.71c-3.55,2.19-1.69,9.77-.16,11.11s7.64,2.56,8.44-3.15a9.44,9.44,0,0,0-2.65-8.15.38.38,0,0,1,.24-.65,7.23,7.23,0,0,1,5.31,1.86.38.38,0,0,0,.53,0,5.35,5.35,0,0,1,3.41-1.62.38.38,0,0,1,.27.69c-1.15.9-2.69,2.77-2.63,6.3.1,5.65,3.46,7.91,7.74,7.44s6.68-9.23,4.66-14.35c3.32,1.41,4.24,10.17,4.34,11.17a.28.28,0,0,1,0,.18c-.33.74-3.29,7.19-9.66,7.12-5.94,0-8-2.92-8.93-4.53a.36.36,0,0,0-.64,0c-2.72,6-12.46,2.56-12.73-.17C240.37,387,240.2,386.93,240.09,386.93Z"/><path class="cls-1" d="M240.09,267.76c-4.2,0-23,.38-30.27,8.42a.85.85,0,0,0,.93,1.36c8.77-3.46,26.19-2.59,26.19-2.59h6.3s17.42-.87,26.18,2.59a.85.85,0,0,0,.93-1.36C263.13,268.14,244.28,267.75,240.09,267.76Z"/><path class="cls-1" d="M184.74,251.29v2a.38.38,0,0,1-.71.18l-7.53-13.67s1.13,4.92-4.92,12.43l15.29,25-3.06,5.45L167.51,256s-2.57,2.61-10.81,2.54-18.48,3.06-29.38,23.66-44.78,26.85-60.47,12c21.27-7,29.64-42.79,33.23-58.48s20.86-33.89,38.41-29a38.82,38.82,0,0,1,15.32,18.23.89.89,0,0,1-1.42,1c-3.87-3.5-11.38-9.67-17.49-11-19.67,3.59-25.52,16.35-26.71,26.85s-6.52,42.94-20.07,48.58c25.08,5.87,34.42-14.29,38.94-24.39s16.61-18.08,28.71-17.55c10.64.47,16.95-9.76,17.42-15.57a5.87,5.87,0,0,0-.64-3.08c-1.93-3.82-3.2-6.31-4-7.94a1.75,1.75,0,0,0-3-.18,8.58,8.58,0,0,1-4.88,3.49.63.63,0,0,1-.64-1c3.42-4.11,3.15-9.85,3.15-9.85s-1.55-3.44-2.77-6a2.49,2.49,0,0,0-3.32-1.17,12.8,12.8,0,0,1-7.86,1.15c7.37-2.33,8.9-9.31,3.25-13.89s-16.34,4.67-7.77,11.47c-4.85,4.54-10.9-3.9-6.18-11.07s13-8.71,17.87-5.25,7,10,6.25,13.09c7.38,13.29,28.84,47.31,28.84,47.31l-.86,10.37L186.53,257l-1-5.82A.38.38,0,0,0,184.74,251.29Z"/><path class="cls-1" d="M295.44,251.29v2a.37.37,0,0,0,.7.18l7.54-13.67s-1.13,4.92,4.92,12.43l-15.29,25,3.06,5.45L312.67,256s2.57,2.61,10.81,2.54,18.47,3.06,29.37,23.66,44.79,26.85,60.47,12c-21.26-7-29.63-42.79-33.22-58.48s-20.87-33.89-38.41-29a38.86,38.86,0,0,0-15.33,18.23.9.9,0,0,0,1.43,1c3.87-3.5,11.38-9.67,17.49-11C365,218.5,370.79,231.26,372,241.76s6.51,42.94,20.07,48.58C367,296.21,357.64,276.05,353.12,266s-16.61-18.08-28.71-17.55c-10.64.47-17-9.76-17.42-15.57a5.87,5.87,0,0,1,.64-3.08c1.93-3.82,3.2-6.31,4-7.94a1.75,1.75,0,0,1,3-.18,8.58,8.58,0,0,0,4.88,3.49.63.63,0,0,0,.64-1c-3.42-4.11-3.16-9.85-3.16-9.85s1.55-3.44,2.78-6a2.48,2.48,0,0,1,3.31-1.17,12.84,12.84,0,0,0,7.87,1.15c-7.38-2.33-8.9-9.31-3.26-13.89s16.35,4.67,7.78,11.47c4.85,4.54,10.9-3.9,6.18-11.07s-13-8.71-17.88-5.25-7,10-6.24,13.09c-7.38,13.29-28.84,47.31-28.84,47.31l.86,10.37,4.05-3.26,1.05-5.82A.38.38,0,0,1,295.44,251.29Z"/><path class="cls-1" d="M151.63,214.1c-3-1.38-7.57-2.5-11.15.42a115.25,115.25,0,0,1-12.39-4.31s8.52-5.73,10.51-6.53,6.07,2.17,6.07,2.17,1.79.64,4.93,4.67C150.18,211.26,152.49,214.48,151.63,214.1Z"/><path class="cls-1" d="M328.54,214.1c3.06-1.38,7.58-2.5,11.16.42a115.25,115.25,0,0,0,12.39-4.31s-8.52-5.73-10.52-6.53-6.06,2.17-6.06,2.17-1.79.64-4.93,4.67C330,211.26,327.69,214.48,328.54,214.1Z"/><path class="cls-1" d="M159.74,253s-.05-9.73-1.77-16.48a.89.89,0,0,1,1.45-.89c7.81,6.76,9.39,11.5,9.39,11.5Z"/><path class="cls-1" d="M320.44,253s0-9.73,1.77-16.48a.9.9,0,0,0-1.46-.89c-7.8,6.76-9.38,11.5-9.38,11.5Z"/><path class="cls-1" d="M146.63,296c-.91,8-.68,22.2,11.16,28.31a1,1,0,0,0,1.12-.19c4.84-4.77,3.88-10.27,2.73-13.34a1,1,0,0,0-1.78,0,5.67,5.67,0,0,1-3,3.08,1,1,0,0,1-1.09-.27c-4.05-4.86-6.2-12.47-7.25-17.63A1,1,0,0,0,146.63,296Z"/><path class="cls-1" d="M333.54,296c.92,8,.69,22.2-11.15,28.31a1,1,0,0,1-1.12-.19c-4.85-4.77-3.88-10.27-2.73-13.34a1,1,0,0,1,1.78,0,5.67,5.67,0,0,0,3,3.08.94.94,0,0,0,1.08-.27c4.06-4.86,6.2-12.47,7.26-17.63A1,1,0,0,1,333.54,296Z"/><text class="cls-8" transform="translate(57.55 213.94) rotate(-62.18)">B</text><text class="cls-8" transform="translate(87.88 153.11) rotate(-40.92)">O</text><text class="cls-8" transform="matrix(0.95, -0.32, 0.32, 0.95, 142.73, 104.22)">O</text><text class="cls-8" transform="matrix(1, 0.03, -0.03, 1, 212.32, 80.38)">T</text><text class="cls-8" transform="matrix(0.93, 0.36, -0.36, 0.93, 275.01, 80.67)">B</text><text class="cls-8" transform="matrix(0.76, 0.65, -0.65, 0.76, 338.62, 104.88)">A</text><text class="cls-8" transform="matrix(0.53, 0.85, -0.85, 0.53, 383.52, 141.62)">Y</text></svg>