<svg id="Layer_1" data-name="Layer 1" xmlns="http://www.w3.org/2000/svg" viewBox="0 0 485.14 411"><defs><style>.cls-1{fill:#25770c;}</style></defs><path class="cls-1" d="M414.08,91.64c-51.16-36.71-98.84-38.23-107.94-38.42l-5.82,5.51c65.31,18.27,96.9,46.8,96.9,46.8C341.16,78.46,288.34,68.94,242.57,68.37c-45.76.57-98.59,10.09-154.64,37.16,0,0,31.59-28.53,96.89-46.8L179,53.22c-9.11.19-56.78,1.71-107.94,38.42,0,0-57.17,95.88-57.17,213.64,1.94-2.28,35.46,50.6,121.89,52.5,0,0,14.54-16.17,25-30.43-50.38-14.27-69.37-42.81-69.37-42.81,52.38,32.39,101.3,44.86,151.15,43.24,49.85,1.61,98.78-10.85,151.16-43.24,0,0-19,28.54-69.38,42.81,10.46,14.26,25,30.43,25,30.43,86.42-1.9,120-54.78,121.89-52.5,0-117.76-57.16-213.64-57.16-213.64ZM172.22,268.37c-22.09,0-39.92-18.26-39.92-40.71S150.13,187,172.22,187v.19c21.9,0,39.92,18.27,39.92,40.71,0,22.26-17.82,40.52-39.91,40.52Zm140.69,0c-22.09,0-39.92-18.26-39.92-40.52,0-22.44,18-40.71,39.92-40.71V187c22.1,0,39.92,18.26,39.92,40.71S335,268.37,312.92,268.37Z"/></svg>