<svg id="Layer_1" data-name="Layer 1" xmlns="http://www.w3.org/2000/svg" viewBox="0 0 862.19 1219.76"><defs><style>.cls-1,.cls-3{fill:none;stroke:#25770c;stroke-miterlimit:10;stroke-width:3px;}.cls-2,.cls-3{opacity:0.29;}</style></defs><path class="cls-1" d="M275.93,221.23l-87.15-57.67,93.52-46.64Zm-75-56.92,69.51,46,5.08-83.2Z"/><path class="cls-1" d="M692.5,1086.51l47.77-93,56.62,87.84Zm48.37-80.75-38.1,74.14,83.25-4.08Z"/><path class="cls-1" d="M83.25,595.6l.09-38.9L117,576.23ZM86.38,562l-.06,28.32,24.56-14.1Z"/><g class="cls-2"><path class="cls-1" d="M44.41,707.86,3,688.15l37.77-26ZM15.17,687.18l22.31,10.63-2-24.65Z"/></g><g class="cls-2"><path class="cls-1" d="M752.43,647l-55.56-61.19,80.77-17.52ZM708.5,589.48,749.85,635l18.75-58.57Z"/></g><path class="cls-1" d="M16.48,1058.53l8-111.07L116.69,1010ZM29.85,958.45l-6.51,90,81.17-39.35Z"/><rect class="cls-1" x="723.46" y="364.75" width="28.89" height="8.46" rx="0.56" transform="translate(-44.78 629.86) rotate(-45)"/><rect class="cls-1" x="664.98" y="507.51" width="28.89" height="8.46" rx="0.56" transform="translate(-162.85 630.32) rotate(-45)"/><rect class="cls-3" x="695.26" y="11.93" width="28.89" height="8.46" rx="0.56" transform="translate(1004.69 661.85) rotate(-115.86)"/><rect class="cls-1" x="156.44" y="782.97" width="28.89" height="8.46" rx="0.56" transform="translate(-462.98 1284.3) rotate(-115.86)"/><rect class="cls-1" x="681.43" y="749.15" width="28.89" height="8.46" rx="0.56" transform="translate(321.41 1708.16) rotate(-115.86)"/><rect class="cls-3" x="566.4" y="906.91" width="28.89" height="8.46" rx="0.56" transform="translate(1477.6 1513.97) rotate(156.43)"/><rect class="cls-3" x="561.21" y="1200.32" width="28.89" height="8.46" rx="0.56" transform="translate(1159.61 4) rotate(51.48)"/><path class="cls-1" d="M756.32,815.34,736.39,685l122.84,47.9ZM740.21,689.76l18.33,119.89,94.65-75.82Z"/></svg>