<svg id="Layer_1" data-name="Layer 1" xmlns="http://www.w3.org/2000/svg" viewBox="0 0 485.14 411"><defs><style>.cls-1{fill:#25770c;}</style></defs><path id="_04.Twitter" data-name="04.Twitter" class="cls-1" d="M461.61,77.92a172.35,172.35,0,0,1-48.25,13.35,82.13,82.13,0,0,0,37-46.72,177.31,177.31,0,0,1-53.39,20.54,84.26,84.26,0,0,0-145.8,57.5,77,77,0,0,0,2.05,19c-69.82-3.08-131.43-37-173-87.79-29.78,53.4,3.59,97.55,25.67,112.44-13.35,0-26.7-4.11-38-10.27,0,41.58,29.26,76,67.25,83.68-8.21,2.57-26.69,4.11-38,1.54,10.78,33.37,42.1,58,78.55,58.53-28.75,22.59-70.85,40.55-124.75,34.91a237.46,237.46,0,0,0,129.37,38c155,0,239.24-128.35,239.24-239.24a74.85,74.85,0,0,0-.52-10.78c17.46-12.84,31.83-27.72,42.61-44.67Z"/></svg>